<?xml version="1.0" encoding="iso-8859-1"?>
<!-- Uploaded to: SVG Repo, www.svgrepo.com, Generator: SVG Repo Mixer Tools -->
<svg height="800px" width="800px" version="1.1" id="Layer_1" xmlns="http://www.w3.org/2000/svg" xmlns:xlink="http://www.w3.org/1999/xlink" 
	 viewBox="0 0 512 512" xml:space="preserve">
<path style="fill:#FFE100;" d="M344.752,503.467c48.64,0,87.04-47.787,82.773-104.107L426.672,384
	c-11.093-91.307-11.093-184.32,0-273.067c4.267-33.28-13.653-49.493-39.253-59.733c0,0-64-25.6-90.453-34.133
	c-15.36-5.12-31.573-7.68-48.64-8.533l0,0l0,0l0,0l0,0c-17.92,0.853-34.133,3.413-48.64,8.533
	C171.525,25.6,108.379,51.2,108.379,51.2c-25.6,10.24-41.813,26.453-39.253,59.733c8.533,92.16,7.68,186.027,0,273.067l-1.707,15.36
	c-4.267,56.32,34.133,104.107,83.627,104.107h97.28l0,0H344.752z"/>
<path style="fill:#FFFFFF;" d="M67.419,399.36L69.125,384c7.68-87.04,8.533-180.907,0-273.067
	c-3.413-33.28,12.8-49.493,39.253-59.733c0,0,64-25.6,90.453-34.133c15.36-5.12,31.573-7.68,48.64-8.533l0,0l0,0l0,0
	c-20.48,0.853-38.4,3.413-55.467,8.533C161.285,25.6,88.752,51.2,88.752,51.2c-29.867,10.24-48.64,26.453-45.227,59.733
	c9.387,92.16,8.533,186.027,0,273.067l-1.707,15.36c-4.267,56.32,39.253,104.107,94.72,104.107h13.653
	C101.552,503.467,63.152,455.68,67.419,399.36"/>
<path style="fill:#FFA800;" d="M453.979,399.36L452.272,384c-12.8-91.307-12.8-184.32,0-273.067
	c5.12-33.28-15.36-49.493-45.227-59.733c0,0-72.533-25.6-103.253-34.133c-17.067-5.12-35.84-7.68-55.467-8.533l0,0l0,0l0,0
	c17.92,0.853,34.133,3.413,48.64,8.533C324.272,25.6,387.419,51.2,387.419,51.2c25.6,10.24,43.52,26.453,39.253,59.733
	c-11.093,88.747-11.093,181.76,0,273.067l0.853,16.213c4.267,55.467-34.133,104.107-82.773,104.107h13.653
	C414.725,503.467,459.099,455.68,453.979,399.36"/>
<path style="fill:#FFE100;" d="M477.872,399.36L476.165,384c-12.8-91.307-12.8-184.32,0-273.067
	c5.12-33.28-15.36-49.493-45.227-59.733c0,0-72.533-25.6-103.253-34.133c-17.067-5.12-35.84-7.68-55.467-8.533l0,0l0,0l0,0
	c17.92,0.853,34.133,3.413,48.64,8.533C348.165,25.6,411.312,51.2,411.312,51.2c25.6,10.24,43.52,26.453,39.253,59.733
	c-11.093,88.747-11.093,181.76,0,273.067l0.853,16.213c4.267,55.467-34.133,104.107-82.773,104.107h14.507
	C438.619,503.467,482.992,455.68,477.872,399.36"/>
<path style="fill:#FFA800;" d="M277.339,17.067c11.093,3.413,27.307,8.533,43.52,13.653l-0.853,4.267
	c-2.56,16.213-5.973,34.133-5.973,50.347c0,23.893-17.92,42.667-41.813,42.667h23.893c23.893,0,41.813-18.773,41.813-42.667
	c0-16.213,3.413-34.133,5.973-50.347l0.853-4.267c-16.213-5.12-32.427-10.24-42.667-13.653"/>
<path style="fill:#FDCC00;" d="M279.899,17.067c-17.067-5.12-35.84-7.68-55.467-8.533l0,0l0,0l0,0l0,0
	c-20.48,0.853-17.067,3.413-34.133,8.533c-11.093,3.413-26.453,8.533-42.667,13.653l0.853,4.267
	c3.413,16.213,2.56,33.28,2.56,50.347c0,23.893,21.333,42.667,45.227,42.667h79.36c23.893,0,41.813-18.773,41.813-42.667
	c0-16.213,3.413-34.133,5.973-50.347l0-4.267C307.205,25.6,290.992,20.48,279.899,17.067"/>
<polygon style="fill:#63D3FD;" points="195.419,93.867 272.219,93.867 272.219,51.2 195.419,51.2 "/>
<polyline style="fill:#3DB9F9;" points="272.219,51.2 272.219,93.867 297.819,93.867 297.819,51.2 "/>
<path d="M359.259,512H229.552c-5.12,0-8.533-3.413-8.533-8.533c0-5.12,3.413-8.533,8.533-8.533h129.707
	c23.893,0,47.787-10.24,64-28.16c16.213-17.92,24.747-41.813,22.187-66.56L443.739,384c-12.8-91.307-12.8-184.32,0-274.773
	c3.413-24.747-8.533-40.107-39.253-50.347c-0.853,0-72.533-25.6-103.253-34.133c-17.067-5.12-34.987-7.68-53.76-7.68l0,0l0,0
	c-17.92,0.853-35.84,3.413-52.907,8.533c-29.867,8.533-102.4,34.133-103.253,34.133c-30.72,10.24-41.813,24.747-39.253,51.2
	c9.387,90.453,9.387,186.027,0,274.773l-1.707,14.507c-2.56,23.893,5.973,48.64,22.187,66.56c16.213,17.92,40.107,28.16,64,28.16
	h24.747c5.12,0,8.533,3.413,8.533,8.533c0,5.12-3.413,8.533-8.533,8.533h-23.893c-29.013,0-57.173-11.947-76.8-34.133
	c-19.627-21.333-29.013-50.347-26.453-79.36l1.707-16.213c9.387-87.893,9.387-181.76,0-271.36
	c-5.12-43.52,25.6-59.733,49.493-68.267c2.56-0.853,73.387-25.6,104.107-34.133C208.219,3.413,226.992,0,246.619,0h0.853
	c0.853,0,0.853,0,0.853,0c19.627,0.853,39.253,3.413,57.173,8.533c30.72,8.533,100.693,33.28,104.107,34.133
	c14.507,5.12,57.173,19.627,50.347,69.12c-12.8,89.6-12.8,180.053,0,270.507l1.707,16.213c2.56,29.013-6.827,58.027-26.453,79.36
	C415.579,500.053,388.272,512,359.259,512z"/>
<path d="M203.952,503.467c0-5.12-3.413-8.533-8.533-8.533c-5.12,0-8.533,3.413-8.533,8.533c0,5.12,3.413,8.533,8.533,8.533
	C200.539,512,203.952,508.587,203.952,503.467"/>
<path d="M298.672,136.533H197.979c-29.867,0-53.76-23.04-53.76-51.2v-1.707c0-15.36,0-32.427-2.56-46.933l-0.853-4.267
	c-0.853-4.267,1.707-8.533,5.973-9.387c19.627-5.973,34.133-11.093,43.52-13.653c18.773-5.12,37.547-8.533,57.173-8.533h0.853h0.853
	c19.627,0.853,39.253,3.413,57.173,8.533l0,0c9.387,2.56,24.747,7.68,43.52,13.653c4.267,1.707,6.827,5.12,5.973,9.387l-0.853,4.267
	c-2.56,14.507-5.973,32.427-5.973,48.64C349.019,114.347,326.832,136.533,298.672,136.533z M158.725,36.693
	c2.56,15.36,2.56,31.573,2.56,46.933v1.707c0,18.773,17.067,34.133,36.693,34.133h100.693c18.773,0,33.28-14.507,33.28-34.133
	c0-17.067,3.413-34.133,5.973-48.64c-15.36-5.12-28.16-8.533-35.84-11.093c-17.067-5.12-34.987-7.68-53.76-7.68l0,0
	c-18.773,0-36.693,2.56-53.76,7.68C186.032,27.307,174.085,31.573,158.725,36.693z"/>
<path d="M297.819,102.4h-102.4c-5.12,0-8.533-3.413-8.533-8.533V51.2c0-5.12,3.413-8.533,8.533-8.533h102.4
	c5.12,0,8.533,3.413,8.533,8.533v42.667C306.352,98.133,302.085,102.4,297.819,102.4z M203.952,85.333h85.333v-25.6h-85.333V85.333z
	"/>
<path d="M195.419,213.333h-85.333c-5.12,0-8.533-3.413-8.533-8.533c0-5.12,3.413-8.533,8.533-8.533h85.333
	c5.12,0,8.533,3.413,8.533,8.533C203.952,209.92,199.685,213.333,195.419,213.333z"/>
<path d="M178.352,247.467h-68.267c-5.12,0-8.533-3.413-8.533-8.533c0-5.12,3.413-8.533,8.533-8.533h68.267
	c5.12,0,8.533,3.413,8.533,8.533C186.885,244.053,182.619,247.467,178.352,247.467z"/>
<path d="M161.285,281.6h-51.2c-5.12,0-8.533-3.413-8.533-8.533s3.413-8.533,8.533-8.533h51.2c5.12,0,8.533,3.413,8.533,8.533
	S165.552,281.6,161.285,281.6z"/>
<path d="M152.752,315.733h-42.667c-5.12,0-8.533-3.413-8.533-8.533s3.413-8.533,8.533-8.533h42.667c5.12,0,8.533,3.413,8.533,8.533
	S157.019,315.733,152.752,315.733z"/>
<path d="M383.152,213.333h-85.333c-5.12,0-8.533-3.413-8.533-8.533c0-5.12,3.413-8.533,8.533-8.533h85.333
	c5.12,0,8.533,3.413,8.533,8.533C391.685,209.92,387.419,213.333,383.152,213.333z"/>
<path d="M383.152,247.467h-68.267c-5.12,0-8.533-3.413-8.533-8.533c0-5.12,3.413-8.533,8.533-8.533h68.267
	c5.12,0,8.533,3.413,8.533,8.533C391.685,244.053,387.419,247.467,383.152,247.467z"/>
<path d="M383.152,281.6h-51.2c-5.12,0-8.533-3.413-8.533-8.533s3.413-8.533,8.533-8.533h51.2c5.12,0,8.533,3.413,8.533,8.533
	S387.419,281.6,383.152,281.6z"/>
<path d="M383.152,315.733h-42.667c-5.12,0-8.533-3.413-8.533-8.533s3.413-8.533,8.533-8.533h42.667c5.12,0,8.533,3.413,8.533,8.533
	S387.419,315.733,383.152,315.733z"/>
<path d="M161.285,349.867h-51.2c-5.12,0-8.533-3.413-8.533-8.533c0-5.12,3.413-8.533,8.533-8.533h51.2
	c5.12,0,8.533,3.413,8.533,8.533C169.819,346.453,165.552,349.867,161.285,349.867z"/>
<path d="M178.352,384h-68.267c-5.12,0-8.533-3.413-8.533-8.533c0-5.12,3.413-8.533,8.533-8.533h68.267
	c5.12,0,8.533,3.413,8.533,8.533C186.885,380.587,182.619,384,178.352,384z"/>
<path d="M195.419,418.133h-85.333c-5.12,0-8.533-3.413-8.533-8.533c0-5.12,3.413-8.533,8.533-8.533h85.333
	c5.12,0,8.533,3.413,8.533,8.533C203.952,414.72,199.685,418.133,195.419,418.133z"/>
<path d="M383.152,349.867h-51.2c-5.12,0-8.533-3.413-8.533-8.533c0-5.12,3.413-8.533,8.533-8.533h51.2
	c5.12,0,8.533,3.413,8.533,8.533C391.685,346.453,387.419,349.867,383.152,349.867z"/>
<path d="M383.152,384h-68.267c-5.12,0-8.533-3.413-8.533-8.533c0-5.12,3.413-8.533,8.533-8.533h68.267
	c5.12,0,8.533,3.413,8.533,8.533C391.685,380.587,387.419,384,383.152,384z"/>
<path d="M383.152,418.133h-85.333c-5.12,0-8.533-3.413-8.533-8.533c0-5.12,3.413-8.533,8.533-8.533h85.333
	c5.12,0,8.533,3.413,8.533,8.533C391.685,414.72,387.419,418.133,383.152,418.133z"/>
</svg>